<?xml version="1.0" encoding="utf-8"?>
<!-- Generator: Adobe Illustrator 25.2.0, SVG Export Plug-In . SVG Version: 6.00 Build 0)  -->
<svg version="1.1" id="レイヤー_1" xmlns="http://www.w3.org/2000/svg" xmlns:xlink="http://www.w3.org/1999/xlink" x="0px"
	 y="0px" viewBox="0 0 185.5 226" style="enable-background:new 0 0 185.5 226;" xml:space="preserve">
<style type="text/css">
	.st0{fill:#231815;}
</style>
<path class="st0" d="M172,6.8c-1.9-1.1-4.3-0.4-5.4,1.5L70.8,181.7l-34.7-44.6c-1.4-1.7-3.8-2-5.6-0.7c-1.7,1.3-2,3.8-0.7,5.6
	l38.4,49.3c0.8,1,1.9,1.5,3.1,1.5c0.1,0,0.2,0,0.3,0c1.3-0.1,2.5-0.9,3.2-2l98.8-178.6C174.7,10.3,174,7.9,172,6.8z"/>
<path class="st0" d="M122.9,132c-2.2,0-4,1.8-4,4v61l-14.7,14.7H33.5L18.8,197v-70.7l14.7-14.7h61c2.2,0,4-1.8,4-4c0-2.2-1.8-4-4-4
	H31.9c-1.1,0-2.1,0.4-2.8,1.2l-17,17c-0.7,0.7-1.2,1.8-1.2,2.8v74c0,1.1,0.4,2.1,1.2,2.8l17,17c0.7,0.7,1.8,1.2,2.8,1.2h74
	c1.1,0,2.1-0.4,2.8-1.2l17-17c0.7-0.7,1.2-1.8,1.2-2.8v-62.7C126.9,133.7,125.1,132,122.9,132z"/>
</svg>
