<?xml version="1.0" encoding="utf-8"?>
<!-- Generator: Adobe Illustrator 25.2.0, SVG Export Plug-In . SVG Version: 6.00 Build 0)  -->
<svg version="1.1" id="_x34_" xmlns="http://www.w3.org/2000/svg" xmlns:xlink="http://www.w3.org/1999/xlink" x="0px" y="0px"
	 viewBox="0 0 800 512.4" style="enable-background:new 0 0 800 512.4;" xml:space="preserve">
<style type="text/css">
	.st0{fill:#FFFFFF;}
	.st1{stroke:#000000;stroke-miterlimit:10;}
	.st2{fill:url(#SVGID_1_);}
</style>
<g>
	<polygon points="74.2,41.8 83.4,41.5 85,33.7 681.8,12.8 780,226.6 654.6,427.7 648.9,427.7 643.8,435.8 295.6,440.2 242.8,491.4 
		242.5,489.3 232,499.6 224.9,441.1 147.1,442 20,317.2 	"/>
	<polygon class="st0" points="645.9,412.2 297.6,416.5 254.5,458.3 249.4,417.1 164.2,418.2 47.7,303.8 97.9,48.8 672,28.8 
		762.3,225.5 	"/>
</g>
<g>
	<path class="st1" d="M112.2,156.5l2.2,0.6l-0.4,0.8c-0.8,10.5-2.7,18.9-5.7,25.5c2.9,2.2,5.4,4.4,7,6.5L113,193
		c-1.5-1.9-3.7-4-6.3-6.2c-3,5.5-7,9.5-11.7,12.4c-0.5-1-1.7-2.4-2.5-3.3c4.4-2.4,8.2-6.2,11.1-11.5c-2.2-1.7-4.5-3.2-6.7-4.6
		l-0.7,2.6l-3.4-1.8c1.5-5.2,3.3-12.7,5-20.4h-5.9v-3.7h6.7c0.9-4.4,1.8-8.7,2.5-12.5l4.9,0.6c-0.1,0.4-0.4,0.7-1.2,0.7
		c-0.7,3.4-1.5,7.2-2.4,11.2h9.1L112.2,156.5z M101.6,160.4c-1.2,5.5-2.6,11.1-3.8,15.9c2.5,1.4,5,3,7.5,4.7
		c2.4-5.5,4.1-12.4,4.9-20.6H101.6z M137.7,153.9c3.8,4.9,8,11.2,9.5,15.6l-3.5,1.9c-0.4-1.2-1-2.5-1.7-4
		c-9.4,0.8-18.9,1.4-25.2,1.8c-0.1,0.5-0.5,0.7-0.8,0.8l-1.7-4.6l4.8-0.2c2.5-5.9,5.3-14.7,6.7-21l5.2,1.3c-0.2,0.4-0.7,0.7-1.4,0.7
		c-1.6,5.5-4.3,13.2-6.7,18.9l17.2-0.8c-1.7-2.9-3.8-6-5.8-8.6L137.7,153.9z M118.8,199.1v-24.3h25.1v24h-4v-2.5h-17.3v2.8H118.8z
		 M139.9,178.6h-17.3v14.1h17.3V178.6z"/>
	<path class="st1" d="M192,146.8c-0.1,0.5-0.8,0.8-1.5,0.9c-0.7,4.1-1.5,8-2.4,11.5c10.4,2,16.1,9.5,16.1,18.6
		c0,10.5-8,17.3-23,19.4c-0.6-1.2-1.2-2.5-1.9-3.6c13.1-1.7,20.5-7,20.5-15.7c0-7.2-4.6-13.2-13-14.8c-2.8,9.1-6.6,16.2-10.7,21.1
		c0.8,1.1,1.8,2,2.7,2.9l-3,2.9c-0.9-0.9-1.7-1.8-2.5-2.9c-3.8,3.7-8,5.5-12,5.5c-5.2,0-8.4-4.4-8.4-10.9c0-8,4.4-14.3,10.4-18.2
		c-1.1-4.5-2.1-9.4-2.9-14.7l5.7-0.1c-0.1,0.5-0.4,1.1-1.2,1.3c0.6,4.1,1.2,8,2.1,11.7c6.5-3.3,12.8-3.3,15.4-3.3c0.5,0,1,0,1.4,0.1
		c0.9-3.9,1.8-8.3,2.4-13L192,146.8z M171.1,183.9c-2.7-4.3-4.9-9.8-6.6-16.4c-3.7,2.6-7.6,7.3-7.6,13.9c0,4.2,1.6,7.2,4.8,7.2
		C165.2,188.5,168.4,186.4,171.1,183.9z M173.7,180.6c3.6-4.3,6.6-10.4,9-18.3c-0.7-0.1-1.4-0.1-2.1-0.1c-4.6,0.1-9,1.1-12.8,3.2
		C169.3,171.3,171.2,176.6,173.7,180.6z"/>
	<path class="st1" d="M226.7,170.1c3.9-2,10-3.4,14.7-3.4c9.4,0,15.3,5.5,15.3,14.2c0,10.7-9.4,16.6-21.3,16.6c-7.7,0-13-3.1-13-8.3
		c0-4.4,4.3-7.9,9.7-7.9c6.7,0,11.2,5.3,12.1,10.7c4.7-1.8,8.2-5.6,8.2-11.1c0-6.4-4.7-10.5-12.2-10.5c-8.9,0-17.6,4-21.5,7.8
		c-1.8,1.7-4.1,4.1-5.7,6l-3-3c5.3-5.6,22.3-21.7,30.3-29.2c-3.4,0.5-15.3,0.9-22,1.2c-0.2,0.4-0.8,0.8-1.2,0.9l-0.5-5
		c8-0.1,23.3-0.7,27.6-1.3l0.9-0.4l3.1,3.8c-0.3,0.2-0.8,0.5-1.4,0.5C242.5,155.1,231.3,165.6,226.7,170.1L226.7,170.1z
		 M234.9,193.8c1.8,0,3.8-0.2,5.4-0.6c-0.7-4.6-4-8.4-8.4-8.4c-3.1,0-5.8,1.7-5.8,4.4C226,192.8,230.9,193.8,234.9,193.8z"/>
	<path class="st1" d="M286.3,145.9c-0.2,0.5-0.8,0.9-1.8,1c-0.4,2.6-0.9,5.7-1.5,8c5.8-0.4,12.3-1.4,17.4-2.9l0.7,4
		c-5.5,1.4-12,2.3-18.8,2.8c-2.8,11.4-6.7,20.6-12.5,29.1l-4-1.6c5.4-7.8,9.5-16.6,12-27.4h-11.8v-3.8h7c1.8,0,3.7-0.1,5.4-0.1
		c0.7-3.1,1.2-6.5,1.7-10L286.3,145.9z M302,171.1c0.1,4.8,0.4,8,0.8,12.1c3.8,1.5,8.7,4,12.6,6.9l-2.1,3.8
		c-3.3-2.5-7.3-4.8-10.5-6.2c0,5.9-2.4,10.5-11.1,10.5c-6.6,0-11.6-3-11.5-8.5c0-5.9,6.2-8.8,11.7-8.8c2.1,0,4.3,0.4,6.7,1.1
		c-0.2-3.8-0.5-7.6-0.5-10.4L302,171.1z M298.8,185.9c-2.4-0.9-4.9-1.4-7-1.4c-3.6,0-7.8,1.4-7.8,5.1c0,3.4,3.3,5,7.9,5
		c4.3,0,7-2.1,7-6C298.8,187.7,298.8,186.8,298.8,185.9z M315,165c-6.7,0.1-14.8,1.1-21,2.9l-0.7-3.7c6.7-2,14.9-3.2,21.4-3.2
		L315,165z"/>
	<path class="st1" d="M334.5,156.9c-0.2,0.6-0.7,0.9-1.5,1c-0.5,8.8-1.6,16.2-2.4,17.5h0.1c5.8-4.3,14.9-7.3,21.8-7.3
		c9.1,0,14.8,4.7,14.7,13c-0.2,10.9-9.2,15.7-32.1,16.7c-0.3-1.1-0.8-2.8-1.5-3.9c20.7-0.9,28.9-4.3,29.1-12.7
		c0.1-5.7-3.9-9.1-10.8-9.1c-11,0-20.8,6.6-22.5,9.5l-4-2c1.2-1.1,3.3-11.7,3.4-23.3L334.5,156.9z M335.5,145.4
		c8,0.9,17.2,2.8,23,5.2l-1.5,4.1c-6.1-2.6-14.9-4.3-22.7-5.4L335.5,145.4z"/>
	<path class="st1" d="M404.8,144.2c-0.1,0.5-0.6,0.7-1.2,0.8c5.8,7.9,16.6,17.3,25.8,22.3c-1,0.9-2,2.2-2.7,3.4
		c-9.4-5.6-20.1-15-25.6-22.8c-4.8,7.4-14.7,16.9-25,23.2c-0.5-0.9-1.7-2.2-2.5-3.1c10.4-6.1,20.7-16.2,25.4-24.3L404.8,144.2z
		 M417.6,174.9l0.8-0.2l2.8,1.1c-0.1,0.4-0.3,0.6-0.5,0.9c-2.5,5.4-7.2,15.3-11,22.7l-4.1-1.1c3.2-6,7-14,9.6-19.6h-34.5v-3.8H417.6
		z M388.3,163.2h26.5v3.7h-26.5V163.2z"/>
	<path class="st1" d="M456.2,147c-0.1,0.7-0.8,1-2,1.1c-0.7,3.3-1.7,9.1-2.4,12.6c2.7-0.3,5.1-0.5,6.6-0.5c9-0.1,12.1,5.9,12.1,14.7
		c0,4.4-0.8,9.7-2,13.3c-1.8,6-5.6,8.9-10.5,8.9c-2.4,0-5.6-1-10.7-5.1c0.7-1.1,1.1-2.4,1.6-3.6c4.7,3.7,7.2,4.5,9.1,4.5
		c3.4,0,5.4-2.1,6.6-5.9c1.2-3.7,1.9-9.1,1.9-12.1c-0.1-6.7-2.2-10.8-8.2-10.7c-1.8,0-4.2,0.2-7.2,0.6c-3,12.1-6.5,22.4-12.1,32
		l-3.9-1.9c5.7-9.2,9-18.3,11.8-29.6c-3,0.4-7.3,0.9-10.5,1.4l-0.4-4.1c2.9-0.4,7.8-0.9,11.7-1.4c0.9-4.3,1.8-9.6,2.5-14.9
		L456.2,147z M469.9,145.2c2.8,2.2,6.2,5.7,7.9,8.3l-2.3,1.7c-1.7-2.5-5.2-6.3-7.8-8.2L469.9,145.2z M483.1,179.6
		c-2-8.5-6.6-15.7-12.1-20.2l3.4-2.3c5.9,4.9,10.9,12.3,12.9,20.9L483.1,179.6z M478.8,142.8c2.9,2.1,6.3,5.7,8,8.2l-2.3,1.7
		c-1.7-2.5-5.2-6.3-7.8-8.3L478.8,142.8z"/>
	<path class="st1" d="M543.8,171.3h-20.7c-1.3,11.4-5.1,19.9-16.6,26.4c-0.9-0.9-2.3-2.1-3.3-2.8c10.7-5.8,14.5-13.1,15.7-23.6
		h-24.1v-3.9h24.4c0.3-3.9,0.3-7.9,0.4-12.7c-6,1.4-13.8,2.7-20.4,3.4c-0.3-1.1-0.7-2.3-1.2-3.4c20.8-2.5,33-6.6,36.7-8.2l3.1,3.5
		c-0.2,0.1-0.5,0.2-0.8,0.2c-0.2,0-0.4,0-0.7-0.1c-3.3,1.2-8.6,2.8-13.3,3.9l2,0.2c-0.1,0.5-0.5,0.9-1.2,1
		c-0.1,4.4-0.1,8.5-0.4,12.2h20.3V171.3z"/>
	<path class="st1" d="M591.5,165.8c-0.2,0.2-0.4,0.4-0.7,0.4c-2.4,6.1-6.4,12-10.7,16.4c-0.7-0.7-2-1.5-3-2
		c3.4-3.1,7.2-8.6,8.9-12.6l-16.6,3.7l5.4,25.3l-3.5,0.8l-5.4-25.3l-13.5,3.1l-0.8-3.3l13.6-3l-2.7-12.3l4.9-0.5
		c0,0.5-0.3,0.8-1.1,1.2l2.2,10.8l19.5-4.2l0.4-0.3L591.5,165.8z"/>
	<path class="st1" d="M603.6,150.6c6.2,2,13.3,5,17.6,8.1l-2.2,3.7c-4.3-3-11.2-6.2-17.3-8.2L603.6,150.6z M603.4,191.6
		c21-6.5,35-18.3,42.1-34.7c1.2,1,2.6,1.8,3.8,2.4c-7.4,16.2-21.8,28.8-41.9,35.5c-0.1,0.5-0.4,1.1-0.8,1.4L603.4,191.6z"/>
	<path class="st1" d="M694.5,151.9c-0.1,0.3-0.4,0.5-0.8,0.7c-3.2,7.5-7,14-11.8,20.4c6.5,5.1,16.2,14,21.7,20.1l-3.6,3.1
		c-5.2-6-14.7-15-20.8-19.9c-5.2,6.3-14.2,15-22.8,19.9c-0.7-0.9-2.1-2.4-3.1-3.2c16.4-9,29.4-25.8,34.7-38.7h-29.1v-4h31.4l0.8-0.3
		L694.5,151.9z"/>
</g>
<linearGradient id="SVGID_1_" gradientUnits="userSpaceOnUse" x1="203.6016" y1="445.6016" x2="472.2772" y2="176.9261">
	<stop  offset="0" style="stop-color:#FFFCD1"/>
	<stop  offset="0.1118" style="stop-color:#FCF5C0"/>
	<stop  offset="0.3329" style="stop-color:#F4E493"/>
	<stop  offset="0.3708" style="stop-color:#F3E18B"/>
	<stop  offset="0.6854" style="stop-color:#F1C500"/>
	<stop  offset="1" style="stop-color:#CB9B0C"/>
</linearGradient>
<rect x="81" y="299.5" class="st2" width="513.9" height="23.5"/>
<g>
	<path class="st1" d="M124.7,303.9c0,1.7,0.5,2,3.1,2h8.9c2.4,0,2.8-1.1,3-8.1c0.9,0.7,2.6,1.2,3.7,1.6c-0.5,8.1-1.6,10.2-6.3,10.2
		h-9.5c-5.3,0-6.7-1.2-6.7-5.7v-15.3H110l-0.3,0.1c-1.5,10.2-4.6,18.3-18.9,22.4c-0.4-1-1.5-2.5-2.3-3.4c12.7-3.3,15.8-9.9,17-19.1
		H89.6v-3.8h53.3v3.8h-18.2V303.9z M95.3,267.1v8.6h-4v-12.4H114v-7.3l5.3,0.4c-0.1,0.4-0.4,0.7-1.2,0.8v6.2H141v12.4h-4.1v-8.6
		H95.3z M132.5,277.8H100V274h32.6V277.8z"/>
	<path class="st1" d="M178.8,256c-0.1,0.5-0.6,0.8-1.2,0.9c5.7,7.8,16.4,16.8,25.6,21.5c-1,0.9-2,2.3-2.7,3.5
		c-9.3-5.4-19.9-14.4-25.4-22.1c-4.9,7.3-14.6,16.5-24.9,22.5c-0.5-0.9-1.7-2.3-2.5-3.1c10.4-5.8,20.6-15.6,25.2-23.4L178.8,256z
		 M177.3,295.2v10.4h23.9v3.7h-51.2v-3.7h23.2v-10.4h-18.2v-3.6h18.2v-9.8h-15.6v-3.6h36v3.6h-16.3v9.8h18.5v3.6H177.3z"/>
	<path class="st1" d="M216.3,277.2v-8.6c-1.9,2.2-4,4.2-6,5.9c-0.7-0.8-2.1-1.9-3-2.5c4.9-3.7,9.8-9.8,12.8-16.1l4.7,1.7
		c-0.2,0.4-0.6,0.6-1.3,0.5c-0.8,1.7-1.8,3.3-2.9,4.9h38.5v3.6h-6.3v10.7h8.6v3.6h-8.6v10.8h7.8v3.6h-51.7v-3.6h7.5v-10.8h-8.4v-3.6
		H216.3z M218.7,299c-1.5,4.4-4.3,9.2-7.6,12l-3.7-1.6c3.2-2.5,6-7,7.6-11.4L218.7,299z M219.9,266.6v10.7h7.1v-10.7H219.9z
		 M219.9,280.8v10.8h7.1v-10.8H219.9z M226.7,310.4c-0.1-2.8-0.5-7.4-1.2-10.9l3.6-0.4c0.8,3.5,1.5,8.1,1.5,10.7L226.7,310.4z
		 M237.9,266.6h-7.4v10.7h7.4V266.6z M237.9,280.8h-7.4v10.8h7.4V280.8z M241.4,310.5c-0.5-2.8-2.1-7.5-3.7-11l3.7-0.7
		c1.7,3.4,3.3,8.1,3.9,10.8L241.4,310.5z M249,277.2v-10.7h-7.6v10.7H249z M249,291.6v-10.8h-7.6v10.8H249z M258,311.1
		c-1.5-3.2-5-8.3-8-12l3.7-1.3c3.1,3.6,6.6,8.6,8.2,11.8L258,311.1z"/>
	<path class="st1" d="M281.5,280.5v2.9c2.1,1.7,8.3,7.6,9.8,9.1l-2.4,3.3c-1.2-1.8-4.7-5.7-7.3-8.3v23.4h-3.8v-24.3
		c-2.7,6.2-6.2,12.5-9.6,16.3c-0.4-1.1-1.4-2.8-2.1-3.8c4-4.1,8.5-11.8,10.9-18.6h-10.1v-3.8h11V256l5,0.4c-0.1,0.4-0.4,0.7-1.1,0.8
		v19.7H292v3.8H281.5z M270.4,260.1c2,4,3.7,9.3,4.2,12.7l-3.4,0.9c-0.5-3.4-2.1-8.8-4-12.8L270.4,260.1z M292.8,261.4
		c-0.2,0.4-0.6,0.6-1.2,0.6c-1.4,3.6-3.7,9-5.5,12.3c-0.7-0.2-2.2-0.9-2.8-1.1c1.7-3.5,3.9-9.3,5-13.3L292.8,261.4z M321.4,293.6
		l-8.1,1.4v16h-3.9v-15.3l-17.2,3.1l-0.7-3.7l17.9-3.1v-35.8l5.1,0.4c-0.1,0.4-0.4,0.7-1.2,0.8v33.9l7.5-1.3L321.4,293.6z
		 M296.6,275.9c3.7,2.4,8,6.1,10.1,8.7c-2.4,1.9-2.6,2.2-2.9,2.5c-2-2.6-6.3-6.4-10-8.9L296.6,275.9z M298.1,260.1
		c3.4,2.5,7.3,6.1,9.1,8.6l-3,2.4c-1.7-2.6-5.6-6.3-9-8.9L298.1,260.1z"/>
	<path class="st1" d="M337.1,302.4c15-4.2,27-11.4,34.3-24.3c0.8,1,2.2,2.2,3.1,3c-8,13.6-21.2,21.5-39,26.2c-0.1,0.5-0.5,1-0.9,1.2
		l-2.5-4.1l0.7-1.1v-43.6l6.1,0.3c-0.1,0.7-0.6,1.2-1.8,1.3V302.4z"/>
	<path class="st1" d="M424.5,268.9c-0.2,0.3-0.5,0.6-0.9,0.8c-6.2,19.2-15.9,31.5-32.3,39.8c-0.7-1-1.8-2.4-3-3.3
		c15.5-7.5,25.1-19.4,30-35h-21.1c-3.4,5.3-8,10.5-13.3,14.6c-0.8-0.8-2.2-2-3.4-2.7c8-6.2,14.9-15.3,18.9-25.7l5.6,1.6
		c-0.2,0.6-0.9,0.8-1.7,0.8c-1.2,2.6-2.4,5.1-3.8,7.5h20.8l0.7-0.4L424.5,268.9z"/>
	<path class="st1" d="M482.1,283.1h-20.7c-1.3,11.4-5.1,19.9-16.6,26.4c-0.9-0.9-2.3-2.1-3.3-2.8c10.7-5.8,14.5-13.1,15.7-23.6
		h-24.1v-3.9h24.4c0.3-3.9,0.3-7.9,0.4-12.7c-6,1.4-13.9,2.7-20.4,3.4c-0.3-1.1-0.7-2.3-1.2-3.4c20.8-2.5,33-6.6,36.7-8.2l3.1,3.5
		c-0.2,0.1-0.5,0.2-0.8,0.2c-0.2,0-0.4,0-0.6-0.1c-3.3,1.2-8.6,2.8-13.3,3.9l2,0.2c-0.1,0.5-0.5,0.9-1.2,1
		c-0.1,4.4-0.1,8.5-0.4,12.2h20.3V283.1z"/>
	<path class="st1" d="M529.8,277.6c-0.2,0.2-0.4,0.4-0.7,0.4c-2.4,6.1-6.4,12-10.7,16.4c-0.7-0.7-2-1.5-3-2
		c3.4-3.1,7.2-8.6,8.9-12.6l-16.6,3.7l5.4,25.3l-3.5,0.8l-5.4-25.3l-13.5,3.1l-0.8-3.3l13.6-3l-2.7-12.3l4.9-0.5
		c0,0.5-0.3,0.8-1.1,1.2l2.2,10.8l19.5-4.2l0.4-0.3L529.8,277.6z"/>
	<path class="st1" d="M539.8,280.3h49.4v4.2H542c-0.4,0.6-1.1,1-1.9,1.1L539.8,280.3z"/>
	<path class="st1" d="M604.6,277c-2.4,3.8-5,7.3-7.6,10.1c-0.5-0.9-1.5-2.8-2.1-3.7c6-6.2,11.8-16.5,15.3-27l4.9,1.6
		c-0.2,0.4-0.7,0.6-1.4,0.6c-1.6,4.3-3.5,8.5-5.6,12.5l1.7,0.5c-0.1,0.4-0.4,0.7-1.1,0.8V311h-4V277z M650.9,269.4v4h-8.3v32
		c0,3.1-0.9,4.4-3,5c-2.1,0.7-5.9,0.8-12.1,0.7c-0.2-1.1-0.9-2.9-1.5-4c2.5,0.1,4.9,0.1,6.8,0.1c5.5,0,5.9,0,5.9-1.8v-32h-25v-4h25
		v-12.7l5.1,0.3c-0.1,0.4-0.4,0.7-1.2,0.8v11.5H650.9z M620.7,279.8c3.7,4.6,7.7,10.8,9.2,14.9l-3.7,1.9c-1.5-4-5.3-10.4-9-15.1
		L620.7,279.8z"/>
	<path class="st1" d="M704.7,277.2c-5.3,1.8-11.8,3-17.9,3.7c1.8,3.2,5.4,7.6,9.8,9.3l-2.4,3.4c-0.8-0.4-2.4-1.1-3.4-1.8
		c-1.3-0.5-4.2-0.9-7-0.9c-0.8,0-1.7,0.1-2.4,0.1l-0.8-3.3c2-0.1,4.9,0,6.6,0.2c-1.6-1.7-3.5-4.3-4.7-6.7c-4,0.4-8.3,0.6-15.9,0.6
		c-2.9,0-6.2,0-8.8-0.1l-0.1-3.7c2.7,0.1,6.1,0.1,9.1,0.1c4.9,0,9.6,0,14.4-0.4c-0.6-1.8-1.6-5.2-2.3-7.9c-2.4,0.2-5,0.4-7.5,0.4
		c-3.2,0-7.3,0-10.1-0.1v-3.7c3.6,0.2,7.5,0.2,10,0.2c2.1,0,4.6-0.1,6.8-0.3c-0.5-2.7-1.1-6-1.6-9.3l6.1,0.1c0,0.7-0.5,1.1-1.6,1.3
		c0.4,2.5,0.8,5.3,1.2,7.6c5.6-0.5,11.5-1.7,15.9-3.4l1,3.7c-4.3,1.6-10.2,2.7-16.1,3.4c0.8,3.1,1.5,5.9,2.2,7.8
		c6.3-0.7,13.1-2,18.5-3.9L704.7,277.2z M694.3,308.5c-3.3,0.2-7.2,0.4-13,0.4c-9.6-0.1-17-3.1-16.9-9.8c0.1-3.5,3.1-7.2,7-9.4
		l2.7,2.7c-3.4,1.8-5.4,4.3-5.4,6.6c0,4.2,5.2,6,12.7,6.1c4.4,0,9.1-0.2,13.1-0.5L694.3,308.5z"/>
</g>
</svg>
